<svg xmlns="http://www.w3.org/2000/svg" viewBox="0 0 720 480" role="img" aria-labelledby="title desc">
  <title id="title">Cây xanh ban công</title>
  <desc id="desc">Minh hoạ cây xanh sau khi được chăm sóc</desc>
  <defs>
    <linearGradient id="bg" x1="0" y1="0" x2="1" y2="1">
      <stop stop-color="#fff1e8"/>
      <stop offset="1" stop-color="#e9f8f1"/>
    </linearGradient>
    <linearGradient id="pot" x1="0" y1="0" x2="0" y2="1">
      <stop stop-color="#ff8a3d"/>
      <stop offset="1" stop-color="#ea580c"/>
    </linearGradient>
  </defs>
  <rect width="720" height="480" rx="32" fill="url(#bg)"/>
  <circle cx="590" cy="84" r="112" fill="#fff" opacity=".55"/>
  <path d="M135 405h450" stroke="#d9ccbe" stroke-width="10" stroke-linecap="round"/>
  <path d="M330 397h120l22-114H308z" fill="url(#pot)"/>
  <path d="M390 286c-7-82 10-143 52-184" fill="none" stroke="#16835f" stroke-width="12" stroke-linecap="round"/>
  <path d="M391 285c-36-72-82-111-139-118" fill="none" stroke="#16835f" stroke-width="12" stroke-linecap="round"/>
  <path d="M405 212c37-53 89-74 145-58-22 56-72 83-145 58z" fill="#39a87b"/>
  <path d="M370 239c-65-6-108-39-123-96 60-13 108 21 123 96z" fill="#53b88d"/>
  <path d="M413 165c-6-57 18-99 66-125 25 48 3 99-66 125z" fill="#16835f"/>
  <path d="M351 187c-55-16-88-52-94-105 54-3 91 32 94 105z" fill="#2e946e"/>
  <circle cx="610" cy="350" r="34" fill="#f97316" opacity=".15"/>
  <text x="42" y="62" fill="#5a3e2b" font-family="sans-serif" font-size="24" font-weight="700">AntGo · cập nhật công việc</text>
</svg>
